HIERARCHY
ROOT Hips
{
	OFFSET 0.00000 0.00000 0.00000
	CHANNELS 6 Xposition Yposition Zposition Zrotation Yrotation Xrotation 
	JOINT LHipJoint
	{
		OFFSET 0 0 0
		CHANNELS 3 Zrotation Yrotation Xrotation
		JOINT LeftHip
		{
			OFFSET 1.82298 -1.58346 0.87084
			CHANNELS 3 Zrotation Yrotation Xrotation
			JOINT LeftKnee
			{
				OFFSET 2.43790 -6.69809 0.00000
				CHANNELS 3 Zrotation Yrotation Xrotation
				JOINT LeftAnkle
				{
					OFFSET 2.59288 -7.12389 0.00000
					CHANNELS 3 Zrotation Yrotation Xrotation
					JOINT LeftToe
					{
						OFFSET 0.14552 -0.39981 2.13160
						CHANNELS 3 Zrotation Yrotation Xrotation
						End Site
						{
							OFFSET 0.00000 -0.00000 1.09427
						}
					}
				}
			}
		}
	}
	JOINT RHipJoint
	{
		OFFSET 0 0 0
		CHANNELS 3 Zrotation Yrotation Xrotation
		JOINT RightHip
		{
			OFFSET -1.77229 -1.58346 0.87084
			CHANNELS 3 Zrotation Yrotation Xrotation
			JOINT RightKnee
			{
				OFFSET -2.50703 -6.88801 0.00000
				CHANNELS 3 Zrotation Yrotation Xrotation
				JOINT RightAnkle
				{
					OFFSET -2.61620 -7.18796 0.00000
					CHANNELS 3 Zrotation Yrotation Xrotation
					JOINT RightToe
					{
						OFFSET -0.15190 -0.41735 2.15974
						CHANNELS 3 Zrotation Yrotation Xrotation
						End Site
						{
							OFFSET -0.00000 -0.00000 1.10919
						}
					}
				}
			}
		}
	}
	JOINT lowerback
	{
		OFFSET 0 0 0
		CHANNELS 3 Zrotation Yrotation Xrotation
		JOINT Chest
		{
			OFFSET -0.03602 2.12423 -0.30249
			CHANNELS 3 Zrotation Yrotation Xrotation
			JOINT Chest2
			{
				OFFSET 0.02717 2.10043 0.12912
				CHANNELS 3 Zrotation Yrotation Xrotation
				JOINT lowerneck
				{
					OFFSET 0 0 0
					CHANNELS 3 Zrotation Yrotation Xrotation
					JOINT Neck
					{
						OFFSET -0.06371 1.88656 0.11602
						CHANNELS 3 Zrotation Yrotation Xrotation
						JOINT Head
						{
							OFFSET 0.08208 1.87759 -0.11505
							CHANNELS 3 Zrotation Yrotation Xrotation
							End Site
							{
								OFFSET 0.03382 1.93090 -0.05483
							}
						}
					}
				}
				JOINT LeftCollar
				{
					OFFSET 0 0 0
					CHANNELS 3 Zrotation Yrotation Xrotation
					JOINT LeftShoulder
					{
						OFFSET 3.30903 1.40357 0.20156
CHANNELS 3 Zrotation Xrotation Yrotation
						JOINT LeftElbow
						{
OFFSET 0 -5.433010 0.000000
CHANNELS 3 Zrotation Xrotation Yrotation
							JOINT LeftWrist
							{
OFFSET 0 -3.159360 0.000000
CHANNELS 3 Zrotation Xrotation Yrotation
								JOINT lhand
								{
									OFFSET 0 0 0
CHANNELS 3 Zrotation Xrotation Yrotation
									JOINT LFingers
									{
OFFSET 0 -0.712830 0.000000
CHANNELS 3 Zrotation Xrotation Yrotation
										End Site
										{
OFFSET 0 -0.574700 0.000000
										}
									}
								}
								JOINT LThumb
								{
OFFSET 0 0.000000 0.000000
CHANNELS 3 Zrotation Xrotation Yrotation
									End Site
									{
OFFSET 0 -0.583470 0.583470
									}
								}
							}
						}
					}
				}
				JOINT RightCollar
				{
					OFFSET 0 0 0
					CHANNELS 3 Zrotation Yrotation Xrotation
					JOINT RightShoulder
					{
						OFFSET -3.12947 1.60037 -0.00464
CHANNELS 3 Zrotation Xrotation Yrotation
						JOINT RightElbow
						{
OFFSET 0 -5.341940 0.000000
CHANNELS 3 Zrotation Xrotation Yrotation
							JOINT RightWrist
							{
OFFSET 0 -3.193510 0.000000
CHANNELS 3 Zrotation Xrotation Yrotation
								JOINT rhand
								{
									OFFSET 0 0 0
CHANNELS 3 Zrotation Xrotation Yrotation
									JOINT RFingers
									{
OFFSET 0 -0.743860 0.000000
CHANNELS 3 Zrotation Xrotation Yrotation
										End Site
										{
OFFSET 0 -0.599720 0.000000
										}
									}
								}
								JOINT RThumb
								{
OFFSET 0 0.000000 0.000000
CHANNELS 3 Zrotation Xrotation Yrotation
									End Site
									{
OFFSET 0 -0.608880 0.608880
									}
								}
							}
						}
					}
				}
			}
		}
	}
}
MOTION
Frames: 8
Frame Time: 0.008333333333333333
-6.668000 17.003900 -24.032500 -0.903800 0.126100 4.461100 0.000000 0.000000 0.000000 -13.472500 -10.376500 -12.651000 3.178700 10.978800 32.208400 0.945500 3.832100 -20.134600 0.108500 -2.124200 -5.849100 0.000000 0.000000 0.000000 15.248700 11.773600 -14.919700 -4.423500 -12.703600 38.268800 -0.836300 -6.299200 -20.676000 -0.378900 3.953300 -10.945200 -3.511100 1.889300 5.885700 0.751800 2.270800 -3.177500 2.490000 1.296100 -6.801700 -4.764300 -3.159300 -6.290100 5.651700 -4.428900 11.433100 2.257500 -2.052900 4.686900 -0.000000 -0.000000 0.000000 4.283000 -0.007300 -37.796100 13.054200 -21.366600 2.473000 25.997600 33.884800 -24.181400 0.000000 0.000000 0.000000 -7.125000 0.000000 0.000000 -3.705500 56.487100 1.044600 -0.000000 -0.000000 0.000000 -9.917800 9.800400 32.536500 -19.160900 -29.618100 -5.110100 -14.580500 12.403700 34.511200 0.000000 0.000000 0.000000 7.125000 0.000000 -0.000000 23.054400 63.935000 -10.862800
-6.679866 16.993917 -24.038575 -0.778173 -0.005730 4.381742 0.000000 0.000000 0.000000 -13.568629 -10.211207 -12.672738 3.199919 11.011829 32.319897 0.950603 3.796618 -20.162361 0.113905 -2.175748 -5.991536 0.000000 0.000000 0.000000 15.128056 11.713529 -15.108937 -4.503574 -12.801913 38.631489 -0.856202 -6.113769 -20.733287 -0.382517 3.971781 -10.997358 -3.525068 1.896000 6.121149 0.782171 2.272966 -3.056204 2.524559 1.296559 -6.810482 -4.616380 -3.233529 -6.324090 5.496861 -4.517787 11.250630 2.179369 -2.099882 4.635027 0.000000 0.000000 0.000000 4.274962 -0.293703 -37.864970 13.050288 -21.360901 2.471617 25.943726 33.882786 -24.544414 0.000000 0.000000 0.000000 -7.125000 0.000000 0.000000 -3.892050 56.860815 1.132486 0.000000 0.000000 0.000000 -10.018089 9.457423 32.326297 -19.110597 -29.555875 -5.085296 -14.344167 12.397633 34.774758 0.000000 0.000000 0.000000 7.125000 0.000000 0.000000 23.588071 64.108506 -11.224178
-6.703328 16.983588 -24.048936 -0.625720 -0.044440 4.343456 0.000000 0.000000 0.000000 -13.635002 -10.164801 -12.742890 3.216904 11.038207 32.408868 0.948800 3.777591 -20.134446 0.123095 -2.261608 -6.229161 0.000000 0.000000 0.000000 15.012323 11.663317 -15.373916 -4.598207 -12.916521 39.056757 -0.885977 -5.952016 -20.900624 -0.369488 3.904494 -10.808068 -3.531073 1.836009 6.333685 0.851451 2.189457 -2.985140 2.606438 1.256916 -6.854456 -4.696045 -3.217652 -6.323621 5.616661 -4.500157 11.201063 2.230762 -2.088105 4.623179 0.000000 0.000000 0.000000 4.316764 -0.523973 -38.110392 13.054958 -21.367669 2.473270 25.938939 33.692599 -24.253082 0.000000 0.000000 0.000000 -7.125000 0.000000 0.000000 -3.794161 56.550565 1.075475 0.000000 0.000000 0.000000 -10.176646 9.351055 32.404900 -19.118196 -29.565218 -5.089029 -14.304866 12.346944 34.726296 0.000000 0.000000 0.000000 7.125000 0.000000 0.000000 23.580147 64.054446 -11.190446
-6.753831 16.964479 -24.070508 -0.279726 -0.228726 4.322547 0.000000 0.000000 0.000000 -13.790844 -10.029794 -12.897353 3.240684 11.074881 32.532759 0.943044 3.771713 -20.077175 0.147102 -2.471847 -6.811643 0.000000 0.000000 0.000000 14.735875 11.712937 -15.938133 -4.784875 -13.137398 39.884842 -0.935166 -5.654874 -21.156153 -0.345431 3.776592 -10.449041 -3.699721 1.867092 6.599455 0.855970 2.206774 -2.883157 2.698036 1.272056 -6.908271 -4.650933 -3.218878 -6.396434 5.617751 -4.491595 10.905677 2.223814 -2.082916 4.543745 0.000000 0.000000 0.000000 4.468520 -0.936113 -38.197776 13.070105 -21.389810 2.478800 25.901028 33.563458 -24.242501 0.000000 0.000000 0.000000 -7.125000 0.000000 0.000000 -3.831563 56.531111 1.084352 0.000000 0.000000 0.000000 -10.199213 9.301201 32.310208 -19.244652 -29.721487 -5.151576 -14.395246 12.412073 34.377570 0.000000 0.000000 0.000000 7.125000 0.000000 0.000000 23.121513 63.764938 -10.804373
-6.854035 16.937168 -24.104271 0.287469 -0.349018 4.316559 0.000000 0.000000 0.000000 -13.993833 -9.927306 -13.105832 3.255543 11.097701 32.610062 0.924365 3.772029 -19.899732 0.177817 -2.716088 -7.489308 0.000000 0.000000 0.000000 14.365468 11.750368 -16.821919 -5.088290 -13.482492 41.202558 -1.002323 -5.334142 -21.557270 -0.316310 3.615181 -9.996545 -4.064497 1.839153 6.995466 0.815043 2.117329 -2.719986 2.863832 1.241171 -6.969709 -4.609595 -3.201978 -6.415604 5.462575 -4.427836 10.272006 2.174348 -2.062637 4.346017 0.000000 0.000000 0.000000 4.700495 -1.560474 -37.517263 12.991663 -21.274999 2.450230 26.124521 33.887943 -24.236785 0.000000 0.000000 0.000000 -7.125000 0.000000 0.000000 -3.586693 56.573688 1.018630 0.000000 0.000000 0.000000 -10.093940 9.042786 31.969915 -19.246268 -29.723510 -5.152384 -14.733958 12.628035 34.183262 0.000000 0.000000 0.000000 7.125000 0.000000 0.000000 22.554205 63.679110 -10.480547
-7.037479 16.907489 -24.155050 0.912180 -0.442681 4.370803 0.000000 0.000000 0.000000 -13.943313 -10.012508 -13.310494 3.246480 11.083733 32.562733 0.880696 3.975840 -19.595299 0.228034 -3.073457 -8.483301 0.000000 0.000000 0.000000 14.287371 12.222209 -17.783099 -5.439170 -13.861874 42.686922 -1.033992 -5.562339 -21.983502 -0.289798 3.460172 -9.562662 -4.603985 1.834802 7.424563 0.718517 2.034102 -2.527584 3.069214 1.218825 -7.023774 -4.522239 -3.169303 -6.151133 5.359338 -4.344920 9.125457 2.140842 -2.035756 3.944971 0.000000 0.000000 0.000000 5.129905 -2.516101 -36.210892 12.752646 -20.923704 2.364262 26.791004 34.988531 -24.508370 0.000000 0.000000 0.000000 -7.125000 0.000000 0.000000 -2.950912 57.010086 0.868858 0.000000 0.000000 0.000000 -9.846450 8.744820 31.691498 -19.326152 -29.821924 -5.192014 -14.181547 12.558650 34.886562 0.000000 0.000000 0.000000 7.125000 0.000000 0.000000 23.892355 64.162712 -11.414119
-7.304899 16.882329 -24.238588 1.144777 0.317898 4.620759 0.000000 0.000000 0.000000 -13.068256 -10.991855 -13.885017 3.273813 11.125584 32.704763 0.807906 4.256720 -19.041980 0.296836 -3.503384 -9.683551 0.000000 0.000000 0.000000 14.918017 12.134074 -18.971028 -5.713043 -14.144372 43.818725 -1.025216 -5.987581 -22.182482 -0.287090 3.445879 -9.522662 -4.621172 1.619577 7.861771 0.734236 1.726776 -2.342357 3.131818 1.065764 -7.050494 -4.646399 -3.220582 -5.949595 5.170699 -4.339859 7.748033 2.337452 -2.071327 3.866260 0.000000 0.000000 0.000000 5.471128 -4.075997 -34.107904 12.426704 -20.441519 2.249077 27.174387 35.903759 -24.877513 0.000000 0.000000 0.000000 -7.125000 0.000000 0.000000 -2.654168 57.490517 0.812246 0.000000 0.000000 0.000000 -9.773542 8.510424 31.499663 -19.514247 -30.052682 -5.285964 -14.245227 12.260666 34.222021 0.000000 0.000000 0.000000 7.125000 0.000000 0.000000 23.128829 63.584558 -10.710816
-7.639865 16.860639 -24.345727 1.108516 1.100483 4.780415 0.000000 0.000000 0.000000 -11.676546 -11.945431 -14.654533 3.344342 11.232652 33.068468 0.709702 4.748572 -18.338632 0.375023 -3.933078 -10.888410 0.000000 0.000000 0.000000 16.108889 12.122316 -19.930785 -5.898366 -14.329110 44.572386 -1.016109 -6.213356 -22.253920 -0.237807 3.138128 -8.663522 -4.390459 1.518661 8.305260 0.825365 1.605544 -2.069399 3.110398 0.992019 -6.997619 -4.637482 -3.299665 -5.387298 5.109839 -4.412109 6.339775 2.308015 -2.120720 3.266549 0.000000 0.000000 0.000000 5.781041 -5.955514 -32.184312 12.301726 -20.255623 2.205638 28.280659 36.527757 -25.552970 0.000000 0.000000 0.000000 -7.125000 0.000000 0.000000 -1.644878 58.470327 0.542070 0.000000 0.000000 0.000000 -10.066811 8.059444 31.103545 -19.332377 -29.829611 -5.195166 -14.555354 12.437074 34.068704 0.000000 0.000000 0.000000 7.125000 0.000000 0.000000 22.636631 63.527690 -10.441016
